<?xml version="1.0" encoding="UTF-8" standalone="no"?>
<svg
   xmlns:dc="http://purl.org/dc/elements/1.1/"
   xmlns:cc="http://creativecommons.org/ns#"
   xmlns:rdf="http://www.w3.org/1999/02/22-rdf-syntax-ns#"
   xmlns:svg="http://www.w3.org/2000/svg"
   xmlns="http://www.w3.org/2000/svg"
   xmlns:sodipodi="http://sodipodi.sourceforge.net/DTD/sodipodi-0.dtd"
   xmlns:inkscape="http://www.inkscape.org/namespaces/inkscape"
   viewBox="0 0 512 512"
   version="1.1"
   id="svg4"
   sodipodi:docname="icon.svg"
   inkscape:export-filename="C:\Users\kurt\Downloads\icon\icon.png"
   inkscape:export-xdpi="24"
   inkscape:export-ydpi="24"
   inkscape:version="0.92.3 (2405546, 2018-03-11)">
  <metadata
     id="metadata10">
    <rdf:RDF>
      <cc:Work
         rdf:about="">
        <dc:format>image/svg+xml</dc:format>
        <dc:type
           rdf:resource="http://purl.org/dc/dcmitype/StillImage" />
        <dc:title></dc:title>
      </cc:Work>
    </rdf:RDF>
  </metadata>
  <defs
     id="defs8" />
  <sodipodi:namedview
     pagecolor="#ffffff"
     bordercolor="#666666"
     borderopacity="1"
     objecttolerance="10"
     gridtolerance="10"
     guidetolerance="10"
     inkscape:pageopacity="0"
     inkscape:pageshadow="2"
     inkscape:window-width="2400"
     inkscape:window-height="1271"
     id="namedview6"
     showgrid="true"
     inkscape:lockguides="true"
     showguides="false"
     inkscape:measure-start="0,0"
     inkscape:measure-end="0,0"
     inkscape:zoom="1.3037281"
     inkscape:cx="104.69299"
     inkscape:cy="142.45416"
     inkscape:window-x="2391"
     inkscape:window-y="41"
     inkscape:window-maximized="1"
     inkscape:current-layer="layer2" />
  <g
     inkscape:groupmode="layer"
     id="layer2"
     inkscape:label="Background"
     style="display:inline">
    <rect
       style="fill:#ffffff;fill-opacity:1;stroke-width:1.5722158"
       id="rect5414"
       width="512"
       height="512"
       x="0"
       y="0" />
  </g>
  <g
     inkscape:groupmode="layer"
     id="layer1"
     inkscape:label="Lock"
     style="display:inline">
    <path
       d="M 376,192.00417 H 188 v -48 c 0,-18.1 7.1,-35.1 20,-48.000004 12.9,-12.9 29.9,-20 48,-20 18.1,0 35.1,7.1 48,20 12.9,12.900004 20,29.900004 20,48.000004 0,7.7 6.3,14 14,14 7.7,0 14,-6.3 14,-14 0,-53.200004 -43.9,-96.700004 -97.3,-96.000004 -52.7,0.7 -94.7,44.5 -94.7,97.300004 v 46.7 h -24 c -22,0 -40,18 -40,40 v 192 c 0,22 18,40 40,40 h 240 c 22,0 40,-18 40,-40 v -192 c 0,-22 -18,-40 -40,-40 z m -106,124.8 v 68.8 c 0,7.5 -5.8,14 -13.3,14.4 -8,0.4 -14.7,-6 -14.7,-14 v -69.2 c -11.5,-5.6 -19.1,-17.8 -17.9,-31.7 1.4,-15.5 14.1,-27.9 29.6,-29 18.7,-1.3 34.3,13.5 34.3,31.9 0,12.7 -7.3,23.6 -18,28.8 z"
       id="path2"
       style="fill:#2980b9;fill-opacity:1"
       inkscape:connector-curvature="0" />
  </g>
</svg>
